PathFileType	4	(X/Y/Z)	61_2_104_p1_0-255_filt_butterworth.trc
DataRate	CameraRate	NumFrames	NumMarkers	Units	OrigDataRate	OrigDataStartFrame	OrigNumFrames
47.0	47.0	6	27	m	47.0	127	255
Frame#	Time	RHip			RKnee			RAnkle			RBigToe			RSmallToe			RHeel			LHip			LKnee			LAnkle			LBigToe			LSmallToe			LHeel			Neck			Head			Nose			RShoulder			RElbow			RWrist			RThumb			RIndex			RPinky			LShoulder			LElbow			LWrist			LThumb			LIndex			LPinky			
		X1	Y1	Z1	X2	Y2	Z2	X3	Y3	Z3	X4	Y4	Z4	X5	Y5	Z5	X6	Y6	Z6	X7	Y7	Z7	X8	Y8	Z8	X9	Y9	Z9	X10	Y10	Z10	X11	Y11	Z11	X12	Y12	Z12	X13	Y13	Z13	X14	Y14	Z14	X15	Y15	Z15	X16	Y16	Z16	X17	Y17	Z17	X18	Y18	Z18	X19	Y19	Z19	X20	Y20	Z20	X21	Y21	Z21	X22	Y22	Z22	X23	Y23	Z23	X24	Y24	Z24	X25	Y25	Z25	X26	Y26	Z26	X27	Y27	Z27	
127	2.702127659574468	0.33140598799537613	0.6286064103671583	0.9587413875866874	0.3330387565986075	0.7713017065540356	1.371257255379835	0.3033042233442301	0.9307878077094767	1.7707674985051434	0.30536676826300646	0.7036165454751869	1.8213982662775978	0.36430478739676236	0.7421976247392927	1.8136143967277725	0.2803426757463403	0.9954028977233663	1.8156044879278983	0.1171018322315094	0.633243246912682	0.9706931210780055	0.11651931641737948	0.7743848591791385	1.389456009704622	0.13037556909635836	0.8920324229664801	1.7643497391248824	0.14564364680102357	0.6746082696558076	1.8083034211264422	0.07817942396182287	0.748114854392548	1.8086264900850308	0.14819425655013296	0.9611721884716004	1.8089733482521893	0.22323196179946783	0.5371349723105194	0.4162644529145132	0.2265652577472266	0.42876178253607544	0.17520055538594842	0.21851094527867299	0.4171399574817879	0.3203661393003812	0.3762918744280179	0.569081124530652	0.48378347007130507	0.4296927696138959	0.3756368103914535	0.6777217734905779	0.3317595227471975	0.29606803114327507	0.5208804657176387	0.2536623594050413	0.27577955113776736	0.4488747030738877	0.25921288290680783	0.26095776455578307	0.4336928538321122	0.27129480500309694	0.23399001073007172	0.4784043264578195	0.08320099673917361	0.5477476921544657	0.4817129699064516	0.012989174572815081	0.3746540883706334	0.6837605643736248	0.06908742359593749	0.25468702065142296	0.49238162186637313	0.08805196746817964	0.30724877157965674	0.40833793611825586	0.07885002887717137	0.25423745938482895	0.3861024911639073	0.03860059089434311	0.23379044264274973	0.3990834408080319
128	2.723404255319149	0.33172006680743393	0.6276824064900886	0.9584916171543203	0.33437324873724755	0.7716009516835409	1.3715591006778465	0.3040942456790935	0.9343774689948141	1.7707209014012488	0.30470477041886246	0.7000787724719035	1.8202908257506007	0.36426385881092904	0.7415972718203402	1.8141096312497154	0.2804422215154848	0.9948775740634896	1.8156599790659826	0.11727575623405356	0.6338167058675666	0.9709455767190768	0.11657159389333384	0.7743443280272668	1.389371120504936	0.1304665753415011	0.892834852794173	1.7644320130042648	0.1455980768224534	0.6744846307952375	1.808444322117051	0.07795788169073177	0.7485202595418252	1.8085031362287904	0.14777099272170052	0.9671330533206545	1.8088221338145414	0.2229038315860363	0.5351094546023568	0.41692073004220664	0.2255787276537896	0.4275441474458596	0.17471606923676034	0.2201644877030884	0.41787617135428573	0.3188004466184542	0.3762852095362225	0.5697080255637097	0.484464551932666	0.42974766865193903	0.3762233607624216	0.6786215436058551	0.33197972185354063	0.2918368732414882	0.5206555977302639	0.25506188990691125	0.2763649662176325	0.44808791924737246	0.259713345327112	0.2603654807665799	0.43373654187834093	0.2731822509744687	0.23553702871389082	0.4806419777892359	0.08291779170317609	0.5475791258124094	0.4816998557410499	0.013263829732349706	0.37470830281727663	0.6890724258542846	0.0863965254079717	0.25405401215468604	0.4950318835313106	0.10124384844820751	0.3075517848253978	0.4082661273734369	0.10413867149942203	0.25189318364784014	0.38726515614150875	0.030790296619669755	0.25926771558801864	0.38991475220777655
129	2.74468085106383	0.33156090814077915	0.628198411328099	0.9584940986077541	0.334622241242966	0.7716050826256254	1.3713165161695997	0.3044735306293667	0.9349997041723589	1.7704053089973206	0.30463043454753813	0.6997568313790904	1.8202301748663232	0.3641940436082596	0.7425653629896048	1.8148692971438922	0.2803459060696384	0.9945722561693479	1.8158014519967764	0.11726079707836747	0.6329944443692129	0.970757582347314	0.11652871160986736	0.7746122152332131	1.3894081708137764	0.13039670803686546	0.8922064444703968	1.7644441649077405	0.14554395261011505	0.6743689082306287	1.8086839055642345	0.07794084696964527	0.7490562750831524	1.8088030158987671	0.14700999773668705	0.9674789637379876	1.8073305336381593	0.2221683704558049	0.5297248474057392	0.4174329719326149	0.2253638927077501	0.4272108553218671	0.17499924613318726	0.22120477711493078	0.41822410413744665	0.31719435392396955	0.376013684264742	0.568982818811592	0.4845972965669383	0.4298384975363189	0.37649089429171845	0.6795862713381566	0.3321912242112911	0.28786497667457145	0.5211085060282316	0.25669329002273755	0.28046483363394165	0.446094840966555	0.2605459717066617	0.2625522131183829	0.43167901267555353	0.2747282322994156	0.24099241881887967	0.47902735252611184	0.08232821179402738	0.5437546461036179	0.48071579523137775	0.013580659012470858	0.375618487531155	0.6926654380962086	0.10213062886302607	0.26647343369187687	0.49801320742402605	0.11081757161387812	0.3089550466132721	0.40947067356093203	0.11678203037999019	0.25414802025411165	0.3865796121341964	0.02326795226175264	0.3012639572800813	0.38540404695480907
130	2.765957446808511	0.3313727232169097	0.628785470588822	0.958604402927121	0.3344336824676983	0.7715172208641476	1.3714601347738606	0.30463723644373875	0.9330804789848582	1.76985628230776	0.30475055829469044	0.7004064482486507	1.8204281322017322	0.36419259645056945	0.7422742987236104	1.8147182747676782	0.28028557318991926	0.9945385914709155	1.8158297351841381	0.11766269395151058	0.6288454690289879	0.9702481438693078	0.11641436687530451	0.7750348091741488	1.389202101306796	0.12987921267370256	0.8878279026767328	1.764277785356351	0.1455202475205183	0.6741947761244707	1.8088762213964076	0.07807985530357281	0.7498049928686892	1.8090235725721637	0.14635896140375773	0.9585116043719228	1.8054034768355012	0.22158896163204744	0.5259828185221915	0.417952303000032	0.22544671376703118	0.42730236013612966	0.17576320728318715	0.2213816328137752	0.4182413443646849	0.3166109139017412	0.3751947323305358	0.5647681417574355	0.4834731480866018	0.4301452076504546	0.37707901847821984	0.6811461867469732	0.3322357403825026	0.28902084302215164	0.521900911099866	0.2596696200141633	0.2902063599659981	0.44287535103346976	0.26225085886525384	0.269656801261182	0.4291928619888234	0.2754585716944067	0.24623404851627592	0.47481025832884866	0.08125911356822432	0.5383540207054185	0.48027713146196016	0.015266046410419216	0.3768665180974001	0.6930569354835796	0.10443795026096298	0.2934133252885556	0.49778341151767075	0.11127535697200266	0.33812219954086176	0.40847910788883013	0.10997698429700067	0.2860874944202007	0.3822715172533314	0.02527411071493175	0.339659775128165	0.3862374739416437
131	2.7872340425531914	0.3311808120476385	0.6292884965017785	0.9587344548634127	0.33437974197968434	0.7717859505470793	1.37278767499567	0.3045573338673655	0.9286626010465072	1.769402400305616	0.3048681174201663	0.7007565694800608	1.8204834881094982	0.36451172217776745	0.7381265605138717	1.812908581590177	0.28027886147404063	0.9944319173371171	1.8155958380066906	0.11842052803235939	0.6224665294598745	0.9696253554601835	0.11685201006736333	0.7739937969802584	1.3884923755138068	0.1291100266209952	0.8809628102897222	1.764003549431122	0.14552826616733153	0.6739743748504856	1.8089367943896948	0.07828583437719142	0.7487999768071638	1.8089563383416325	0.14633585800075322	0.9488801303441952	1.8055542124235564	0.221472407445025	0.5250446252983021	0.41835074767252456	0.22548173237016308	0.4275304456301705	0.17723108460064818	0.22131650045303158	0.4183191263436593	0.31697627736221673	0.3740333767457369	0.558431604158634	0.4814813573727513	0.4302544040619023	0.3780646054523599	0.682980569255062	0.3321954625606498	0.29476709899724884	0.5224653090866546	0.2626822220358938	0.30113222638291287	0.44016885867024436	0.26436086625922434	0.2787669036854261	0.42782356816785333	0.2759423444587745	0.24744233738492621	0.47103967877724756	0.07977789168981267	0.5347347757192853	0.481345716947459	0.01743037187425016	0.3779894016969605	0.6915217979138227	0.09636417399835948	0.32052275294700416	0.4948081472594744	0.10662399190020362	0.3856674845016551	0.40596951829090466	0.0940787636361459	0.3375048621764099	0.37846995606344846	0.036021578221328496	0.3599890837874227	0.38890418455153364
132	2.8085106382978724	0.3314572436609708	0.6284264215244488	0.958706191684589	0.33459390159799807	0.772640508163853	1.374853863291668	0.3042751631436933	0.9234311097405705	1.7696461197525823	0.30493577224380086	0.7007898435582328	1.8205495915428602	0.36503113921912467	0.7310925069935219	1.810163803862713	0.28031949162543507	0.994304928701157	1.8152763831755023	0.1190569008188436	0.6179593491798551	0.969302344031053	0.11856283730955401	0.769569111820825	1.3878227388504631	0.1287111214353169	0.8759236697902246	1.7638120794593928	0.14554012312085815	0.6738772983743211	1.8089672667725412	0.07830770302591351	0.7426174191761232	1.8085712732195869	0.14696875227408956	0.9462725926770302	1.8085330385914922	0.221525159950878	0.5248994753322114	0.4185465292604972	0.2254667010355409	0.42788035553113435	0.17905668778259498	0.22139746840227223	0.4185000016255774	0.3176734423507177	0.37324505241340256	0.5542072622598584	0.4799378017896329	0.42938779960261464	0.3786387742940641	0.6841945079729479	0.3322114815557712	0.299598437634205	0.5225426575827443	0.2635155082493634	0.30635435762873975	0.4391039704888622	0.2652582534594346	0.28291011262889276	0.42782951532805863	0.27631452049520117	0.24645903636776664	0.4694258247407024	0.07823983954943575	0.5331339155143973	0.48329831103908305	0.018696544391793878	0.378273106283121	0.6903151922940981	0.08897817626793816	0.33682288499403423	0.4928707714368663	0.10279997915278971	0.4215882847833205	0.40526235246728015	0.08425913313451493	0.374822349654071	0.37893986627959614	0.047049359952426546	0.3670520675304051	0.3905946570838039
